<svg xmlns="http://www.w3.org/2000/svg" viewBox="0 0 24 24" fill="none">
  <path d="M22.282 9.821a5.985 5.985 0 0 0-.516-4.91 6.046 6.046 0 0 0-6.51-2.9A6.065 6.065 0 0 0 4.981 4.18a5.998 5.998 0 0 0-3.998 2.9 6.042 6.042 0 0 0 .743 7.097 5.98 5.98 0 0 0 .51 4.911 6.04 6.04 0 0 0 6.51 2.9A5.99 5.99 0 0 0 13.275 24a6.04 6.04 0 0 0 5.772-4.206 5.99 5.99 0 0 0 3.997-2.9 6.04 6.04 0 0 0-.762-7.073zM13.275 22.43a4.476 4.476 0 0 1-2.876-1.04l.141-.081 4.779-2.758a.795.795 0 0 0 .392-.681v-6.737l2.02 1.168a.071.071 0 0 1 .038.052v5.583a4.504 4.504 0 0 1-4.494 4.494zM3.397 18.36a4.476 4.476 0 0 1-.535-3.014l.142.085 4.783 2.759a.771.771 0 0 0 .78 0l5.843-3.369v2.332a.08.08 0 0 1-.033.062L9.512 19.95a4.5 4.5 0 0 1-6.115-1.59zM2.223 7.94a4.49 4.49 0 0 1 2.342-1.972V11.6a.77.77 0 0 0 .388.676l5.815 3.355-2.02 1.168a.076.076 0 0 1-.071.005l-4.83-2.786A4.504 4.504 0 0 1 2.223 7.94zm17.114 3.98l-5.842-3.37 2.02-1.166a.076.076 0 0 1 .071-.006l4.83 2.786a4.494 4.494 0 0 1-.697 8.084V12.6a.785.785 0 0 0-.382-.68zm2.01-3.023l-.141-.085-4.774-2.782a.776.776 0 0 0-.785 0L9.805 9.4V7.068a.08.08 0 0 1 .033-.062l4.83-2.787a4.5 4.5 0 0 1 6.68 4.66zM8.68 12.769l-2.02-1.168a.074.074 0 0 1-.038-.052V5.966a4.5 4.5 0 0 1 7.375-3.453l-.142.08L9.075 5.35a.795.795 0 0 0-.393.681zm1.097-2.368L12 8.986l2.223 1.282v2.566L12 14.116l-2.223-1.282z" fill="#10a37f"/>
</svg>